<svg width="394" height="112" viewBox="0 0 394 112" fill="none" xmlns="http://www.w3.org/2000/svg">
<path fill-rule="evenodd" clip-rule="evenodd" d="M10.9361 67.8536C-3.26272 47.3015 -4.27462 38.1863 27.2241 24.446C96.927 1.49484 190 24.446 280.158 20.5818C306.049 21.7493 407.141 9.4767 380.5 61C353.859 112.523 35.4598 103.35 10.9361 67.8536Z" fill="#BA5D3F"/>
<path d="M53.6 68.5031V47.2481L49.115 48.8081L47.165 44.3231L54.38 41.2031H60.62V68.5031H53.6ZM78.1807 63.0431H63.7507V57.5831L73.1107 41.2031H80.9107L71.5507 57.5831H78.1807V51.7331H85.2007V57.5831H87.9307V63.0431H85.2007V68.5031H78.1807V63.0431ZM89.5059 62.6531H96.5259V68.5031H89.5059V62.6531ZM110.567 57.5831V52.1231H126.557V57.5831H110.567ZM145.844 68.5031V47.2481L141.359 48.8081L139.409 44.3231L146.624 41.2031H152.864V68.5031H145.844ZM155.605 41.2031H176.665V46.6631L167.695 68.5031H159.895L169.255 46.6631H155.605V41.2031ZM176.266 62.6531H183.286V68.5031H176.266V62.6531ZM206.687 57.5831C205.127 57.5831 204.347 58.3631 204.347 59.9231V61.4831C204.347 62.0811 204.516 62.5621 204.854 62.9261C205.218 63.2641 205.699 63.4331 206.297 63.4331H212.147C212.745 63.4331 213.213 63.2641 213.551 62.9261C213.915 62.5621 214.097 62.0811 214.097 61.4831V59.9231C214.097 58.3631 213.317 57.5831 211.757 57.5831H206.687ZM207.467 46.2731C205.907 46.2731 205.127 47.0531 205.127 48.6131V49.7831C205.127 51.3431 205.907 52.1231 207.467 52.1231H210.977C212.537 52.1231 213.317 51.3431 213.317 49.7831V48.6131C213.317 47.0531 212.537 46.2731 210.977 46.2731H207.467ZM221.117 61.4831C221.117 64.0311 220.519 65.9031 219.323 67.0991C218.127 68.2951 216.255 68.8931 213.707 68.8931H204.737C202.189 68.8931 200.317 68.2951 199.121 67.0991C197.925 65.9031 197.327 64.0311 197.327 61.4831V61.0931C197.327 59.1171 197.821 57.4791 198.809 56.1791C199.589 55.1391 200.655 54.4371 202.007 54.0731C200.837 53.6831 199.888 53.0071 199.16 52.0451C198.458 51.0571 198.107 49.7831 198.107 48.2231V47.8331C198.107 45.4671 198.705 43.7121 199.901 42.5681C201.097 41.3981 202.969 40.8131 205.517 40.8131H212.927C215.475 40.8131 217.347 41.3981 218.543 42.5681C219.739 43.7121 220.337 45.4671 220.337 47.8331V48.2231C220.337 49.7831 219.973 51.0571 219.245 52.0451C218.543 53.0071 217.607 53.6831 216.437 54.0731C218.543 54.6451 219.973 56.0491 220.727 58.2851C220.987 59.0911 221.117 60.0271 221.117 61.0931V61.4831ZM223.454 62.6531H230.474V68.5031H223.454V62.6531ZM265.186 49.7831C265.186 51.9931 264.25 53.9041 262.378 55.5161C261.806 56.0101 261.182 56.5041 260.506 56.9981L252.121 63.0431H265.186V68.5031H244.126V61.0931L258.166 50.9531V49.0031C258.166 47.4431 257.386 46.6631 255.826 46.6631H244.906V41.2031H257.386C260.116 41.2031 262.092 41.8271 263.314 43.0751C264.562 44.2971 265.186 46.2731 265.186 49.0031V49.7831ZM283.9 48.6131C283.9 47.0531 283.12 46.2731 281.56 46.2731H277.27C275.71 46.2731 274.93 47.0531 274.93 48.6131V61.0931C274.93 62.6531 275.71 63.4331 277.27 63.4331H281.56C283.12 63.4331 283.9 62.6531 283.9 61.0931V48.6131ZM290.92 61.0931C290.92 63.8231 290.296 65.8121 289.048 67.0601C287.826 68.2821 285.85 68.8931 283.12 68.8931H275.71C272.98 68.8931 270.991 68.2821 269.743 67.0601C268.521 65.8121 267.91 63.8231 267.91 61.0931V48.6131C267.91 45.8831 268.521 43.9071 269.743 42.6851C270.991 41.4371 272.98 40.8131 275.71 40.8131H283.12C285.85 40.8131 287.826 41.4371 289.048 42.6851C290.296 43.9071 290.92 45.8831 290.92 48.6131V61.0931ZM314.317 49.7831C314.317 51.9931 313.381 53.9041 311.509 55.5161C310.937 56.0101 310.313 56.5041 309.637 56.9981L301.252 63.0431H314.317V68.5031H293.257V61.0931L307.297 50.9531V49.0031C307.297 47.4431 306.517 46.6631 304.957 46.6631H294.037V41.2031H306.517C309.247 41.2031 311.223 41.8271 312.445 43.0751C313.693 44.2971 314.317 46.2731 314.317 49.0031V49.7831ZM330.69 68.8931C326.348 68.8931 321.538 68.6331 316.26 68.1131V62.8481C322.006 63.2381 326.296 63.4331 329.13 63.4331C329.728 63.4331 330.196 63.2641 330.534 62.9261C330.898 62.5621 331.08 62.0811 331.08 61.4831V59.5331C331.08 57.9731 330.3 57.1931 328.74 57.1931H317.43V41.2031H336.15V46.6631H324.45V51.7331H330.69C333.238 51.7331 335.11 52.3181 336.306 53.4881C337.502 54.6321 338.1 56.3871 338.1 58.7531V61.4831C338.1 64.0311 337.502 65.9031 336.306 67.0991C335.11 68.2951 333.238 68.8931 330.69 68.8931Z" fill="white"/>
</svg>
