<svg width="387" height="426" viewBox="0 0 387 426" fill="none" xmlns="http://www.w3.org/2000/svg">
<path fill-rule="evenodd" clip-rule="evenodd" d="M144.483 7.63634C216.75 -24.7704 295.667 55.7316 311.041 67.3204C352.542 98.6023 338.489 413.462 301.195 425.264C288.478 429.288 257.504 392.896 242.733 393.055C229.375 393.199 185.201 356.974 176.151 367.072C148.065 398.408 45.9464 183.644 18.6269 158.664C-35.2979 109.358 34.3252 57.0353 144.483 7.63634Z" fill="#D3D3D3"/>
<path fill-rule="evenodd" clip-rule="evenodd" d="M265.114 85.5742C264.63 85.6646 264.165 85.3453 264.075 84.8624C263.985 84.3795 264.304 83.914 264.787 83.8241C272.263 82.4286 279.862 82.3047 287.445 82.2246C287.937 82.2191 288.339 82.6138 288.345 83.1053C288.35 83.5963 287.956 83.9995 287.464 84.005C279.984 84.084 272.489 84.1977 265.114 85.5742Z" fill="#808080"/>
<path fill-rule="evenodd" clip-rule="evenodd" d="M299.45 84.5929C298.961 84.6383 298.527 84.2784 298.482 83.789C298.436 83.2996 298.796 82.8655 299.285 82.8201C307.205 82.0828 315.222 81.7877 323.152 81.2665C323.642 81.234 324.066 81.6064 324.098 82.0963C324.131 82.5867 323.759 83.0111 323.268 83.0431C315.354 83.5633 307.354 83.8572 299.45 84.5929Z" fill="#808080"/>
<path fill-rule="evenodd" clip-rule="evenodd" d="M332.793 82.9418C332.302 82.9418 331.903 82.5429 331.903 82.0514C331.903 81.5604 332.302 81.1614 332.793 81.1614H357.945C358.436 81.1614 358.835 81.5604 358.835 82.0514C358.835 82.5429 358.436 82.9418 357.945 82.9418H332.793Z" fill="#808080"/>
<path fill-rule="evenodd" clip-rule="evenodd" d="M279.55 93.2003C279.059 93.2214 278.643 92.8398 278.622 92.3489C278.601 91.8579 278.982 91.4427 279.473 91.4216C287.422 91.0795 295.401 91.1471 303.28 90.0363C303.766 89.9676 304.217 90.307 304.286 90.7936C304.354 91.2803 304.015 91.7312 303.528 91.7994C295.593 92.9183 287.556 92.8561 279.55 93.2003Z" fill="#808080"/>
<path fill-rule="evenodd" clip-rule="evenodd" d="M319.224 91.2153C318.733 91.2153 318.334 90.8164 318.334 90.3254C318.334 89.8339 318.733 89.4349 319.224 89.4349H343.714C344.206 89.4349 344.605 89.8339 344.605 90.3254C344.605 90.8164 344.206 91.2153 343.714 91.2153H319.224Z" fill="#808080"/>
<path fill-rule="evenodd" clip-rule="evenodd" d="M353.696 90.6313C353.206 90.6654 352.78 90.2957 352.745 89.8052C352.711 89.3153 353.082 88.8893 353.572 88.8552C356.782 88.63 360.275 88.6311 363.493 88.8547C365.917 89.023 368.315 89.4274 370.754 89.4799C371.245 89.4907 371.635 89.8983 371.624 90.3893C371.614 90.8808 371.206 91.2711 370.715 91.2603C368.249 91.2067 365.822 90.8012 363.37 90.6313C360.232 90.4131 356.826 90.4115 353.696 90.6313Z" fill="#808080"/>
<path fill-rule="evenodd" clip-rule="evenodd" d="M369.348 82.2219C368.856 82.2219 368.457 81.823 368.457 81.3314C368.457 80.8405 368.856 80.4415 369.348 80.4415C372.775 80.4415 376.519 80.0263 379.919 80.5135C381.72 80.7712 383.432 81.267 385.252 81.4586C385.74 81.5101 386.096 81.9485 386.044 82.4374C385.993 82.9262 385.554 83.2807 385.065 83.2293C383.223 83.0355 381.489 82.537 379.667 82.276C376.348 81.8008 372.693 82.2219 369.348 82.2219Z" fill="#808080"/>
<path fill-rule="evenodd" clip-rule="evenodd" d="M364.668 103.842C364.182 103.913 363.73 103.574 363.66 103.088C363.59 102.602 363.927 102.15 364.414 102.08C367.964 101.568 371.587 102.067 375.134 102.278C378.4 102.473 381.702 102.25 384.96 102.546C385.45 102.59 385.811 103.023 385.767 103.512C385.723 104.002 385.289 104.363 384.8 104.319C381.56 104.025 378.275 104.249 375.028 104.056C371.6 103.852 368.099 103.348 364.668 103.842Z" fill="#808080"/>
<path fill-rule="evenodd" clip-rule="evenodd" d="M347.09 113.89C346.6 113.923 346.175 113.552 346.142 113.062C346.109 112.571 346.48 112.147 346.97 112.114C355.639 111.528 365.133 111.102 373.775 112.087C374.263 112.143 374.614 112.584 374.558 113.073C374.503 113.561 374.061 113.912 373.573 113.856C365.035 112.883 355.655 113.312 347.09 113.89Z" fill="#808080"/>
<path fill-rule="evenodd" clip-rule="evenodd" d="M313.482 114.114C312.993 114.156 312.561 113.793 312.519 113.304C312.477 112.814 312.84 112.383 313.329 112.34C320.083 111.759 327.595 111.127 334.338 112.215C334.823 112.293 335.153 112.75 335.075 113.235C334.997 113.721 334.539 114.051 334.054 113.972C327.452 112.907 320.095 113.545 313.482 114.114Z" fill="#808080"/>
<path fill-rule="evenodd" clip-rule="evenodd" d="M348.401 72.5258C347.911 72.568 347.48 72.2048 347.437 71.7154C347.395 71.2255 347.758 70.7941 348.248 70.7519C355.001 70.1705 362.514 69.5383 369.256 70.6263C369.741 70.7043 370.072 71.1617 369.994 71.6472C369.915 72.1322 369.458 72.4624 368.973 72.384C362.37 71.3186 355.014 71.9568 348.401 72.5258Z" fill="#808080"/>
<path fill-rule="evenodd" clip-rule="evenodd" d="M327.214 64.2869C326.725 64.3292 326.293 63.9659 326.251 63.476C326.208 62.9867 326.572 62.5547 327.062 62.5125C333.815 61.9317 341.327 61.2989 348.07 62.3869C348.555 62.4654 348.885 62.9228 348.807 63.4078C348.729 63.8929 348.271 64.2231 347.786 64.1451C341.183 63.0793 333.827 63.7175 327.214 64.2869Z" fill="#808080"/>
<path fill-rule="evenodd" clip-rule="evenodd" d="M280.525 63.8945C280.036 63.9367 279.604 63.5735 279.562 63.0836C279.52 62.5942 279.883 62.1628 280.373 62.1206C287.126 61.5392 294.639 60.9064 301.381 61.9945C301.866 62.0729 302.197 62.5304 302.118 63.0154C302.04 63.5004 301.582 63.8306 301.097 63.7527C294.495 62.6873 287.138 63.325 280.525 63.8945Z" fill="#808080"/>
<path fill-rule="evenodd" clip-rule="evenodd" d="M279.555 115.02C279.064 115.02 278.666 114.621 278.666 114.13C278.666 113.638 279.064 113.24 279.555 113.24H292.87C295.091 113.24 297.572 113.558 299.71 112.969C300.184 112.838 300.674 113.117 300.805 113.591C300.936 114.064 300.657 114.555 300.183 114.685C297.897 115.316 295.246 115.02 292.87 115.02H279.555Z" fill="#808080"/>
<path fill-rule="evenodd" clip-rule="evenodd" d="M263.957 103.791C263.466 103.791 263.067 103.392 263.067 102.901C263.067 102.41 263.466 102.011 263.957 102.011H284.476C284.967 102.011 285.366 102.41 285.366 102.901C285.366 103.392 284.967 103.791 284.476 103.791H263.957Z" fill="#808080"/>
<path fill-rule="evenodd" clip-rule="evenodd" d="M295.83 102.868C295.339 102.868 294.94 102.469 294.94 101.978C294.94 101.487 295.339 101.088 295.83 101.088H311.012C313.542 101.088 316.338 100.756 318.829 101.253C319.311 101.349 319.624 101.818 319.529 102.3C319.432 102.782 318.963 103.095 318.481 102.999C316.101 102.525 313.429 102.868 311.012 102.868H295.83Z" fill="#808080"/>
<path fill-rule="evenodd" clip-rule="evenodd" d="M305.246 72.6579C304.755 72.6579 304.356 72.2589 304.356 71.7679C304.356 71.2764 304.755 70.8775 305.246 70.8775H320.428C322.958 70.8775 325.754 70.5456 328.245 71.042C328.727 71.1384 329.041 71.6077 328.945 72.0895C328.848 72.5712 328.379 72.8847 327.897 72.7883C325.517 72.3141 322.845 72.6579 320.428 72.6579H305.246Z" fill="#808080"/>
<path fill-rule="evenodd" clip-rule="evenodd" d="M329.417 103.947C328.93 104.005 328.486 103.656 328.428 103.168C328.369 102.68 328.718 102.237 329.206 102.179C333.007 101.723 336.872 101.788 340.695 101.775C344.888 101.762 349.172 101.726 353.326 102.332C353.812 102.403 354.15 102.856 354.078 103.342C354.007 103.828 353.555 104.165 353.069 104.094C349.001 103.501 344.806 103.543 340.701 103.556C336.947 103.568 333.15 103.499 329.417 103.947Z" fill="#808080"/>
</svg>
