<svg width="397" height="368" viewBox="0 0 397 368" fill="none" xmlns="http://www.w3.org/2000/svg">
<path fill-rule="evenodd" clip-rule="evenodd" d="M358.447 299.952C328.475 320.148 217.238 341.095 202.092 361.208C174.645 397.655 11.0641 275.733 3.02978 237.371C-9.86307 175.811 83.8118 134.681 116.083 80.6339C128.988 59.0204 144.082 32.0367 160.913 19.9784C181.873 4.96226 202.624 10.6236 221.213 12.7334C241.262 15.0096 344.382 27.9403 358.447 46.4673C389.569 87.4485 414.829 261.955 358.447 299.952Z" fill="#BA5D3F"/>
<path fill-rule="evenodd" clip-rule="evenodd" d="M277.345 266.778C259.314 278.926 196.848 250.044 174.982 259.53C160.635 265.755 148.435 272.217 142.456 280.156C136.806 287.659 128.025 291.672 117.496 292.918C107.152 294.142 95.1074 292.694 82.7594 289.332C60.6355 283.308 37.5301 271.144 21.5366 257.375C10.744 248.083 3.19638 238.037 1.23146 228.657C-3.99256 203.714 7.97162 182.052 26.4012 161.57C53.6509 131.286 95.0742 103.569 114.407 71.1918C127.382 49.4598 142.594 22.3549 159.517 10.2309C180.727 -4.96393 201.713 0.667575 220.523 2.8024C230.601 3.94629 241.979 5.04076 252.599 8.17192C263.375 11.3457 386.063 33.0885 393.231 42.5321C408.907 63.1811 368.681 112.233 362.143 153.056C355.604 193.857 305.74 247.643 277.345 266.778ZM276.208 265.093C304.203 246.231 353.695 192.955 360.139 152.735C366.576 112.537 407.052 64.0928 391.613 43.7599C384.716 34.6771 262.387 13.1726 252.024 10.1193C241.519 7.02262 230.263 5.95182 220.293 4.82011C201.926 2.73538 181.411 -2.95566 160.7 11.8818C143.96 23.8738 128.985 50.737 116.15 72.2328C96.7575 104.711 55.245 132.55 27.9113 162.928C9.95213 182.887 -1.87127 203.935 3.2194 228.24C5.11123 237.274 12.4673 246.887 22.8619 255.836C38.6476 269.427 61.4558 281.427 83.2927 287.373C95.3673 290.661 107.143 292.099 117.258 290.901C127.188 289.726 135.505 286.011 140.834 278.934C146.973 270.783 159.442 264.059 174.174 257.667C195.929 248.229 258.271 277.181 276.208 265.093Z" fill="#BA5D3F"/>
<path fill-rule="evenodd" clip-rule="evenodd" d="M107.292 140.444C106.688 140.557 106.106 140.158 105.994 139.554C105.881 138.95 106.28 138.368 106.884 138.256C116.233 136.511 125.733 136.356 135.215 136.256C135.83 136.249 136.334 136.742 136.341 137.357C136.347 137.972 135.854 138.475 135.239 138.482C125.886 138.581 116.514 138.724 107.292 140.444Z" fill="#E2BB46"/>
<path fill-rule="evenodd" clip-rule="evenodd" d="M150.228 139.217C149.616 139.274 149.073 138.824 149.016 138.212C148.959 137.6 149.409 137.057 150.021 137C159.924 136.078 169.947 135.709 179.863 135.058C180.476 135.018 181.006 135.483 181.047 136.095C181.087 136.708 180.622 137.239 180.009 137.279C170.114 137.93 160.11 138.297 150.228 139.217Z" fill="#E2BB46"/>
<path fill-rule="evenodd" clip-rule="evenodd" d="M191.919 137.152C191.304 137.152 190.805 136.654 190.805 136.04C190.805 135.425 191.304 134.926 191.919 134.926H223.366C223.982 134.926 224.483 135.425 224.483 136.04C224.483 136.654 223.982 137.152 223.366 137.152H191.919Z" fill="#E2BB46"/>
<path fill-rule="evenodd" clip-rule="evenodd" d="M125.343 149.98C124.729 150.006 124.21 149.529 124.183 148.915C124.157 148.302 124.634 147.782 125.248 147.756C135.186 147.328 145.164 147.412 155.016 146.023C155.624 145.938 156.187 146.362 156.273 146.97C156.359 147.579 155.935 148.143 155.326 148.228C145.404 149.627 135.354 149.549 125.343 149.98Z" fill="#E2BB46"/>
<path fill-rule="evenodd" clip-rule="evenodd" d="M174.953 147.498C174.338 147.498 173.839 146.999 173.839 146.385C173.839 145.77 174.338 145.271 174.953 145.271H205.574C206.189 145.271 206.688 145.77 206.688 146.385C206.688 146.999 206.189 147.498 205.574 147.498H174.953Z" fill="#E2BB46"/>
<path fill-rule="evenodd" clip-rule="evenodd" d="M218.052 146.767C217.443 146.811 216.91 146.348 216.867 145.734C216.824 145.122 217.287 144.589 217.897 144.547C221.91 144.265 226.283 144.266 230.304 144.546C233.336 144.756 236.334 145.262 239.387 145.328C239.996 145.341 240.483 145.851 240.47 146.465C240.456 147.079 239.949 147.567 239.333 147.554C236.253 147.487 233.214 146.98 230.155 146.767C226.229 146.495 221.971 146.492 218.052 146.767Z" fill="#E2BB46"/>
<path fill-rule="evenodd" clip-rule="evenodd" d="M231.772 163.286C231.17 163.374 230.601 162.952 230.513 162.343C230.425 161.735 230.852 161.17 231.454 161.083C235.894 160.443 240.429 161.067 244.863 161.331C248.944 161.574 253.073 161.295 257.148 161.665C257.757 161.72 258.21 162.262 258.156 162.874C258.102 163.486 257.561 163.938 256.945 163.882C252.897 163.515 248.789 163.795 244.727 163.553C240.443 163.298 236.064 162.668 231.772 163.286Z" fill="#E2BB46"/>
<path fill-rule="evenodd" clip-rule="evenodd" d="M209.795 175.85C209.183 175.891 208.651 175.427 208.61 174.814C208.568 174.201 209.032 173.67 209.646 173.629C220.482 172.897 232.354 172.363 243.164 173.595C243.773 173.665 244.213 174.217 244.139 174.828C244.071 175.438 243.523 175.877 242.907 175.808C232.233 174.59 220.503 175.127 209.795 175.85Z" fill="#E2BB46"/>
<path fill-rule="evenodd" clip-rule="evenodd" d="M167.772 176.13C167.16 176.183 166.62 175.729 166.568 175.117C166.515 174.504 166.969 173.965 167.582 173.912C176.025 173.185 185.42 172.395 193.85 173.755C194.457 173.853 194.87 174.424 194.772 175.032C194.674 175.638 194.102 176.051 193.495 175.953C185.239 174.621 176.041 175.419 167.772 176.13Z" fill="#E2BB46"/>
<path fill-rule="evenodd" clip-rule="evenodd" d="M125.351 177.263C124.736 177.263 124.237 176.764 124.237 176.15C124.237 175.536 124.736 175.037 125.351 175.037H141.999C144.777 175.037 147.879 175.436 150.552 174.698C151.144 174.535 151.758 174.883 151.921 175.476C152.084 176.068 151.736 176.681 151.144 176.844C148.285 177.633 144.97 177.263 141.999 177.263H125.351Z" fill="#E2BB46"/>
<path fill-rule="evenodd" clip-rule="evenodd" d="M105.846 163.222C105.232 163.222 104.734 162.724 104.734 162.109C104.734 161.495 105.232 160.996 105.846 160.996H131.503C132.117 160.996 132.616 161.495 132.616 162.109C132.616 162.724 132.117 163.222 131.503 163.222H105.846Z" fill="#E2BB46"/>
<path fill-rule="evenodd" clip-rule="evenodd" d="M145.7 162.068C145.085 162.068 144.587 161.569 144.587 160.956C144.587 160.341 145.085 159.842 145.7 159.842H164.683C167.847 159.842 171.344 159.427 174.458 160.049C175.061 160.168 175.453 160.755 175.332 161.358C175.212 161.96 174.626 162.352 174.023 162.231C171.047 161.639 167.706 162.068 164.683 162.068H145.7Z" fill="#E2BB46"/>
<path fill-rule="evenodd" clip-rule="evenodd" d="M187.698 163.417C187.087 163.49 186.533 163.054 186.46 162.443C186.387 161.834 186.823 161.279 187.433 161.206C192.186 160.637 197.02 160.717 201.8 160.702C207.042 160.685 212.398 160.64 217.592 161.398C218.201 161.487 218.621 162.053 218.533 162.661C218.445 163.268 217.876 163.69 217.274 163.602C212.185 162.859 206.94 162.912 201.806 162.928C197.112 162.944 192.365 162.858 187.698 163.417Z" fill="#E2BB46"/>
<path fill-rule="evenodd" clip-rule="evenodd" d="M52.4968 86.5469C51.8931 86.66 51.311 86.2613 51.1986 85.6569C51.0856 85.0531 51.4842 84.471 52.0887 84.3586C61.4375 82.6137 70.9379 82.4587 80.4201 82.3585C81.0347 82.3518 81.5389 82.8452 81.545 83.4598C81.5518 84.0744 81.0584 84.578 80.4438 84.5847C71.0909 84.6836 61.7184 84.8264 52.4968 86.5469Z" fill="#E2BB46"/>
<path fill-rule="evenodd" clip-rule="evenodd" d="M95.4322 85.3198C94.8203 85.3767 94.2775 84.9265 94.22 84.3147C94.1631 83.7028 94.6139 83.1599 95.2258 83.1031C105.128 82.1812 115.152 81.8123 125.068 81.1605C125.68 81.1206 126.211 81.5856 126.252 82.1981C126.292 82.8114 125.827 83.342 125.213 83.3819C115.318 84.0331 105.314 84.3999 95.4322 85.3198Z" fill="#E2BB46"/>
<path fill-rule="evenodd" clip-rule="evenodd" d="M137.123 83.2554C136.509 83.2554 136.01 82.7566 136.01 82.1427C136.01 81.5281 136.509 81.0292 137.123 81.0292H168.572C169.187 81.0292 169.686 81.5281 169.686 82.1427C169.686 82.7566 169.187 83.2554 168.572 83.2554H137.123Z" fill="#E2BB46"/>
<path fill-rule="evenodd" clip-rule="evenodd" d="M70.5481 96.0826C69.9342 96.109 69.4143 95.6318 69.3879 95.0179C69.3615 94.4046 69.8387 93.8848 70.4526 93.8584C80.391 93.4306 90.3686 93.5152 100.22 92.1263C100.828 92.041 101.392 92.4647 101.478 93.0732C101.563 93.6817 101.139 94.2456 100.531 94.3308C90.6082 95.7299 80.5589 95.6521 70.5481 96.0826Z" fill="#E2BB46"/>
<path fill-rule="evenodd" clip-rule="evenodd" d="M120.157 93.6005C119.543 93.6005 119.044 93.1017 119.044 92.4878C119.044 91.8732 119.543 91.3743 120.157 91.3743H150.779C151.393 91.3743 151.892 91.8732 151.892 92.4878C151.892 93.1017 151.393 93.6005 150.779 93.6005H120.157Z" fill="#E2BB46"/>
<path fill-rule="evenodd" clip-rule="evenodd" d="M163.261 92.8701C162.647 92.9135 162.115 92.4505 162.072 91.8373C162.029 91.2247 162.492 90.692 163.104 90.6494C167.119 90.3678 171.486 90.3691 175.511 90.6487C178.541 90.8592 181.541 91.3648 184.588 91.4304C185.203 91.444 185.691 91.9537 185.677 92.5676C185.664 93.1822 185.155 93.6702 184.54 93.6566C181.457 93.5896 178.422 93.0827 175.357 92.8701C171.433 92.5974 167.174 92.5953 163.261 92.8701Z" fill="#E2BB46"/>
<path fill-rule="evenodd" clip-rule="evenodd" d="M182.831 82.3551C182.216 82.3551 181.717 81.8563 181.717 81.2424C181.717 80.6278 182.216 80.1289 182.831 80.1289C187.116 80.1289 191.798 79.6105 196.049 80.219C198.301 80.5411 200.441 81.1612 202.717 81.4008C203.329 81.4651 203.772 82.0133 203.708 82.6245C203.643 83.2357 203.095 83.6791 202.484 83.6148C200.18 83.3725 198.013 82.7491 195.734 82.4228C191.584 81.8285 187.014 82.3551 182.831 82.3551Z" fill="#E2BB46"/>
<path fill-rule="evenodd" clip-rule="evenodd" d="M176.979 109.389C176.371 109.477 175.806 109.055 175.719 108.446C175.631 107.838 176.054 107.273 176.662 107.186C181.1 106.546 185.631 107.17 190.066 107.434C194.149 107.677 198.279 107.398 202.353 107.768C202.965 107.823 203.417 108.365 203.361 108.977C203.306 109.589 202.764 110.041 202.152 109.985C198.1 109.618 193.994 109.898 189.933 109.656C185.647 109.401 181.27 108.771 176.979 109.389Z" fill="#E2BB46"/>
<path fill-rule="evenodd" clip-rule="evenodd" d="M155 121.953C154.387 121.994 153.856 121.53 153.814 120.917C153.773 120.304 154.237 119.773 154.85 119.731C165.689 119 177.561 118.466 188.366 119.698C188.976 119.768 189.416 120.32 189.346 120.931C189.276 121.541 188.724 121.98 188.113 121.911C177.438 120.693 165.709 121.23 155 121.953Z" fill="#E2BB46"/>
<path fill-rule="evenodd" clip-rule="evenodd" d="M112.977 122.233C112.365 122.286 111.825 121.832 111.772 121.22C111.719 120.607 112.174 120.068 112.786 120.015C121.23 119.288 130.624 118.497 139.054 119.858C139.661 119.955 140.075 120.527 139.976 121.135C139.878 121.741 139.306 122.154 138.7 122.056C130.444 120.724 121.246 121.522 112.977 122.233Z" fill="#E2BB46"/>
<path fill-rule="evenodd" clip-rule="evenodd" d="M70.5556 123.366C69.941 123.366 69.4421 122.867 69.4421 122.253C69.4421 121.639 69.941 121.14 70.5556 121.14H87.2037C89.9815 121.14 93.0836 121.539 95.7565 120.801C96.3487 120.638 96.9627 120.986 97.1258 121.579C97.2889 122.171 96.941 122.784 96.3487 122.947C93.4897 123.736 90.1744 123.366 87.2037 123.366H70.5556Z" fill="#E2BB46"/>
<path fill-rule="evenodd" clip-rule="evenodd" d="M51.0511 109.325C50.4372 109.325 49.9383 108.826 49.9383 108.212C49.9383 107.598 50.4372 107.099 51.0511 107.099H76.7075C77.3221 107.099 77.8209 107.598 77.8209 108.212C77.8209 108.826 77.3221 109.325 76.7075 109.325H51.0511Z" fill="#E2BB46"/>
<path fill-rule="evenodd" clip-rule="evenodd" d="M90.9047 108.171C90.2901 108.171 89.7913 107.672 89.7913 107.059C89.7913 106.444 90.2901 105.945 90.9047 105.945H109.888C113.052 105.945 116.548 105.53 119.663 106.152C120.266 106.271 120.657 106.858 120.537 107.461C120.417 108.063 119.83 108.455 119.227 108.334C116.252 107.742 112.91 108.171 109.888 108.171H90.9047Z" fill="#E2BB46"/>
<path fill-rule="evenodd" clip-rule="evenodd" d="M132.902 109.52C132.292 109.593 131.738 109.157 131.665 108.546C131.591 107.936 132.027 107.382 132.638 107.309C137.391 106.74 142.224 106.82 147.004 106.805C152.247 106.788 157.603 106.743 162.797 107.501C163.405 107.59 163.827 108.156 163.738 108.764C163.65 109.371 163.084 109.793 162.476 109.704C157.389 108.962 152.145 109.015 147.011 109.031C142.317 109.046 137.57 108.96 132.902 109.52Z" fill="#E2BB46"/>
</svg>
