<svg width="916" height="212" viewBox="0 0 916 212" fill="none" xmlns="http://www.w3.org/2000/svg">
<path fill-rule="evenodd" clip-rule="evenodd" d="M330.675 88.7C330.421 88.7462 330.039 88.5532 329.906 88.9528C329.774 89.3512 330.15 89.5155 330.36 89.7275C330.779 90.1488 331.217 90.5461 331.641 90.9622C331.974 91.2904 332.126 91.1506 332.276 90.732C332.685 89.5842 332.064 88.7699 330.675 88.7ZM0 206.532L5.51002 160.901C34.6807 118.268 310.564 107.826 311.236 108.104C311.995 108.417 312.723 108.294 313.468 108.081C313.851 107.972 314.252 107.837 314.636 107.865C316.481 107.995 318.253 107.229 320.095 107.335C320.43 107.354 320.725 107.011 320.652 106.682C320.476 105.886 320.991 105.73 321.441 105.537C321.122 104.849 320.501 105.372 320.113 104.903C320.398 104.366 320.912 104.271 321.359 104.123C324.597 103.051 327.746 101.682 330.95 100.499C331.55 100.277 331.803 99.9096 331.792 99.1957C331.77 97.8464 331.813 96.4956 331.8 95.1463C331.794 94.5019 331.997 93.7883 331.328 93.3251C331.044 93.1289 331.257 92.8383 331.436 92.6815C332 92.1907 331.794 91.8602 331.312 91.5001C331.07 91.3192 330.92 90.9836 330.682 90.7913C329.522 89.8555 328.645 88.2009 326.849 88.8367C326.56 88.9385 326.484 88.7514 326.524 88.3782C326.627 87.4128 327.207 87.6655 327.746 87.6276C328.619 87.5664 329.432 88.3083 330.285 87.9182C330.748 87.7062 331.213 87.4286 331.688 87.4404C334.07 87.502 332.221 85.2923 332.949 84.4398C333.168 84.1839 332.996 83.6378 332.658 83.3571C332.525 83.2465 332.382 83.1494 332.237 83.0609C331.429 82.5693 330.694 81.898 329.75 81.7425C329.406 81.6856 329.162 81.5198 329.24 81.0913C329.318 80.6566 329.619 80.7438 329.871 80.8576C330.145 80.9812 330.38 80.8662 330.639 80.7975C333.105 80.1436 335.277 78.8046 337.229 77.0309C338.69 75.7029 339.87 74.0994 340.362 71.9624C340.488 71.419 340.435 71.0202 340.048 70.6676C339.85 70.4879 339.483 70.3501 339.567 70.0271C339.66 69.6721 340.046 69.6816 340.338 69.6492C342.163 69.4427 343.89 68.8011 345.608 68.127C348.919 66.8283 352.23 65.5311 355.532 64.2068C356.047 63.9998 356.506 64.046 356.966 64.3015C361.095 66.6012 365.486 68.1815 369.695 70.2589C370.386 70.6005 370.659 70.4445 370.789 69.5201C371.097 67.3325 370.521 65.1584 370.818 62.9831C370.867 62.6293 370.613 62.4737 370.407 62.277C370.018 61.9043 369.906 61.475 370.104 60.8819C370.309 60.2624 370.655 60.1511 371.172 60.159C371.574 60.1645 372.025 60.3434 372.435 59.9157C372.31 59.7629 372.209 59.6227 372.092 59.5011C371.457 58.8409 370.918 58.1175 371.278 57.0596C371.692 55.8427 372.012 54.4563 373.614 54.7595C373.865 54.8073 374.137 54.7501 374.03 54.3587C373.71 53.1828 374.381 53.2606 375.055 53.2326C376.059 53.1907 376.516 52.6158 376.381 51.4991C376.323 51.0114 376.519 50.7899 376.724 50.4373C377.161 49.6878 377.41 48.8183 376.941 47.948C376.731 47.5587 376.598 47.2562 376.92 46.8531C377.299 46.3772 377.714 46.7883 378.074 46.8187C378.247 46.8329 378.428 47.537 378.143 47.9097C377.73 48.4495 377.799 49.0774 377.747 49.7103C377.685 50.4622 378.382 50.9771 378.284 51.5729C378.021 53.1611 378.869 53.813 379.858 54.4456C380.105 54.6036 380.569 54.7564 380.449 55.0955C380.007 56.3437 380.881 56.431 381.495 56.7639C383.357 57.7736 383.708 59.1252 382.432 60.9562C381.809 61.8482 381.996 62.1341 382.817 62.5068C384.166 63.1197 384.147 63.1675 383.532 64.5937C383.475 64.726 383.411 64.8662 383.396 65.0087C383.173 67.1497 383.089 69.2982 383.155 71.4538C383.205 73.0802 383.422 73.3164 384.863 73.3156C404.655 73.2954 424.447 73.2769 444.239 73.2599C454.102 73.252 463.965 73.2398 473.828 73.2579C474.742 73.2599 475.249 73.0668 475.228 71.8514C475.175 68.8145 475.199 65.7764 475.214 62.7386C475.219 61.7913 474.657 60.9392 474.844 59.986C475.09 58.7299 474.986 57.6373 474.107 56.6857C473.82 56.3753 473.752 55.8138 473.56 55.3799C473.224 54.6162 473.504 54.2833 474.171 54.157C475.247 53.9528 476.316 53.7135 477.351 53.3044C477.757 53.1441 477.853 53.0142 477.554 52.5344C476.743 51.2338 476.407 49.6831 476.032 48.1822C475.78 47.1757 476.075 46.2031 476.626 45.3198C477.221 44.3666 478.125 43.9911 478.982 43.5235C479.604 43.1836 479.791 42.7389 479.524 41.9895C479.231 41.1693 478.87 40.3188 479.752 39.5938C479.99 39.3987 479.933 38.9672 479.936 38.6307C479.954 36.3859 479.954 34.145 479.218 32.0017C479.104 31.6704 478.869 31.1942 479.181 30.9576C479.75 30.5257 480.011 29.7928 480.512 29.3521C481.346 28.6208 481.26 27.8595 480.76 27.0247C480.058 25.8563 480.519 24.5738 480.451 23.3462C480.443 23.1799 480.642 22.9142 480.801 22.8336C481.824 22.3168 481.693 21.4196 481.446 20.4743C481.196 19.5144 481.258 18.6508 481.893 17.8615C482.305 17.3493 482.554 16.6026 482.441 15.9835C482.143 14.361 482.749 12.8731 482.788 11.3268C482.826 9.87409 483.221 8.35858 482.533 6.94101C482.308 6.47861 482.374 5.97003 482.594 5.53607C482.907 4.91573 482.915 4.26223 482.927 3.58187C482.949 2.4099 482.825 1.22606 483.028 -2.1772e-06C483.312 0.256662 483.26 0.535443 483.275 0.784605C483.394 2.70722 483.006 4.67288 483.672 6.55009C483.729 6.71277 483.722 6.93309 483.681 7.10723C483.218 9.07052 483.409 11.0157 483.768 12.9632C483.954 13.9768 484.248 14.9604 484.025 16.0487C483.874 16.7815 484.104 17.4943 484.49 18.1687C484.97 19.005 485.079 19.9922 484.896 20.9723C484.794 21.5195 484.29 22.0313 484.932 22.5644C485.353 22.9146 485.706 23.39 486.157 23.6672C486.571 23.9207 486.645 23.854 486.53 24.1458C485.765 26.0842 486.381 28.1553 486.073 30.1379C486.023 30.4585 486.353 30.6137 486.507 30.8463C486.942 31.501 487.133 32.2611 486.888 33.0493C486.303 34.9308 486.14 36.778 486.992 38.6228C487.126 38.9131 487.237 39.274 487.214 39.5895C487.121 40.8704 487.363 41.9559 487.899 43.1626C488.746 45.0742 489.86 47.0438 489.262 49.4142C489.246 49.475 489.28 49.5682 489.316 49.6262C489.941 50.6264 489.481 51.5054 489.02 52.3216C488.272 53.646 488.235 53.68 489.625 54.0804C490.394 54.3015 490.697 54.7797 490.974 55.6101C491.58 57.4316 491.182 59.3436 491.557 61.1671C491.595 61.3487 491.598 61.5682 491.419 61.665C490.784 62.0121 490.952 62.6699 490.941 63.2441C490.916 64.4579 491.141 65.6903 490.256 66.7339C489.81 67.2587 490.148 67.7278 490.679 68.0453C491.195 68.3529 491.892 68.3422 492.207 69.0052C492.791 70.2324 492.486 71.5801 492.556 72.8769C492.591 73.5474 492.103 73.718 491.737 74.0228C491.626 74.116 491.511 74.3695 491.546 74.4974C491.988 76.1247 491.412 77.6931 491.353 79.2892C491.23 82.6538 491.464 86.0185 491.315 89.3871C491.264 90.5247 491.368 91.6702 492.125 92.7305C492.571 93.3552 492.847 94.6215 492.191 95.4452C491.515 96.2946 491.496 97.1554 491.68 98.1473C491.77 98.6294 491.688 99.1072 491.614 99.5941C491.297 101.682 491.139 103.756 492.098 105.729C492.335 106.215 492.504 106.67 493.015 106.117C493.315 105.793 493.435 106.075 493.534 106.283C493.729 106.695 493.879 107.134 494.061 107.597C494.47 107.339 494.372 106.972 494.423 106.608C494.511 105.97 493.956 105.129 494.164 104.964C494.789 104.466 494.722 103.681 494.992 103.033C495.299 103.194 495.487 103.432 495.468 103.668C495.374 104.891 496.001 105.232 496.913 105.435C497.452 105.555 498.072 106.073 498.037 106.666C497.964 107.94 498.971 108.254 499.452 108.986C500.099 109.974 500.245 109.862 500.799 108.703C500.557 108.383 500.034 108.901 499.879 108.305C500.029 107.987 500.415 108.172 500.563 107.939C501.062 107.148 501.311 107.342 501.672 108.12C501.968 108.759 502.616 108.644 502.926 107.987C503.099 107.62 503.159 107.216 503.171 106.794C503.187 106.257 503.26 105.73 503.855 105.252C503.662 106.482 504.456 107.129 504.627 108.083C504.83 109.22 505.443 108.594 505.908 108.226C506.023 108.134 506.002 107.641 506.259 108.044C506.523 108.46 507.209 108.541 507.027 109.333C506.943 109.697 507.216 109.899 507.506 109.893C508.825 109.864 510.384 110.542 511.013 108.394C511.09 108.13 511.297 107.898 511.64 107.998C511.937 108.085 511.904 108.326 511.982 108.575C512.143 109.095 512.366 109.604 512.634 110.063C513.117 110.892 514.901 111.52 515.339 110.968C515.965 110.179 516.219 110.606 516.212 111.29C516.204 111.982 516.677 111.878 516.833 111.794C517.271 111.556 517.614 111.001 518.123 111.695C518.182 111.775 518.371 111.422 518.444 111.211C518.818 110.136 519.207 110.003 519.89 110.845C520.34 111.4 520.569 111.236 520.881 110.746C521.521 109.74 521.511 109.757 521.976 110.889C522.214 111.465 522.374 112.262 523.129 111.221C523.579 110.6 523.791 110.036 523.689 109.304C523.59 108.601 523.743 107.959 523.988 107.345C524.104 107.056 524.29 106.657 524.601 106.708C524.805 106.742 525.02 107.07 525.137 107.321C525.435 107.961 525.512 108.657 525.494 109.388C525.453 110.978 525.53 111.021 526.88 110.78C527.197 110.723 527.539 110.788 527.861 110.851C528.243 110.925 528.616 110.903 528.889 110.6C529.415 110.018 530.226 110.255 530.771 109.688C530.965 109.485 531.634 110.093 531.538 109.213C531.491 108.778 531.445 108.319 531.202 107.939C531.074 107.737 530.735 107.781 530.734 107.424C531.161 107.267 531.581 107.1 532.007 106.957C532.629 106.749 532.776 106.272 532.75 105.58C532.724 104.89 532.414 104.678 531.884 104.613C531.476 104.563 531.154 104.27 530.833 104.006C530.566 103.786 530.27 103.547 530.388 103.097C530.488 102.714 530.743 102.458 531.081 102.359C531.502 102.234 531.506 102.721 531.699 102.938C531.942 103.21 532.369 103.914 532.504 103.107C532.646 102.255 533.096 102.099 533.656 101.821C533.121 101.817 532.701 101.744 532.891 101.02C532.99 100.64 532.821 100.732 532.673 100.852C532.436 101.043 532.245 101.031 532.092 100.746C531.96 100.5 532.158 100.343 532.228 100.144C532.521 99.3094 533.005 99.5732 533.601 100.008C533.601 98.274 533.614 96.7107 533.594 95.1479C533.586 94.4683 533.172 94.289 532.643 94.2922C531.683 94.2981 530.723 94.2914 529.763 94.2815C528.548 94.2693 528.548 94.2657 528.498 92.6708C528.458 91.3654 528.74 90.9508 529.78 90.9014C530.64 90.8612 531.503 90.8418 532.361 90.8916C533.303 90.9461 533.653 90.4789 533.678 89.4373C533.706 88.2708 533.013 88.4635 532.402 88.4122C531.998 88.3782 531.527 88.5488 531.321 87.8997C530.809 86.2981 531.37 85.1735 532.829 85.0179C533.509 84.9452 533.769 84.608 533.68 83.8487C533.633 83.4424 533.641 83.025 533.653 82.6135C533.67 82.0311 533.904 81.6248 534.429 81.4597C536.087 80.9361 536.761 81.4913 536.785 83.4171C536.804 84.8789 536.864 84.9464 538.217 85.0278C538.612 85.0519 539.027 85.0072 539.256 85.502C539.856 86.8035 539.139 88.319 537.847 88.3814C537.096 88.4173 536.78 88.7585 536.773 89.6122C536.765 90.5326 537.124 90.9038 537.913 90.8821C538.806 90.8564 539.701 90.9085 540.593 90.8706C541.481 90.8331 541.964 91.1585 541.935 92.2764C541.897 93.7666 541.635 94.2385 540.603 94.2677C539.611 94.2965 538.617 94.2918 537.624 94.2772C536.995 94.2669 536.746 94.5674 536.75 95.2948C536.753 96.387 536.822 97.4436 537.114 98.5023C537.295 99.1593 537.547 99.8251 536.998 100.592C536.496 101.296 537.087 102.215 537.922 102.176C538.299 102.158 538.582 102.158 538.619 102.691C538.639 102.974 538.554 103.372 538.891 103.454C539.235 103.536 539.389 103.173 539.563 102.898C539.715 102.656 539.706 102.154 540.162 102.355C540.484 102.498 540.722 102.762 540.817 103.147C540.915 103.548 540.676 103.789 540.431 103.981C540.025 104.299 539.619 104.624 539.093 104.668C538.728 104.699 538.428 105.055 538.754 105.302C539.412 105.799 540.438 106.633 540.87 106.376C542.221 105.57 541.671 107.018 541.94 107.367C542.175 107.672 541.901 108.32 542.441 108.568C543.279 108.952 544.046 109.375 545.045 109.084C546.48 108.667 547.968 108.48 549.436 108.208C551.75 107.78 553.049 105.984 552.966 103.332C552.941 102.513 553.092 101.901 554.011 101.792C554.853 101.691 555.779 101.505 555.815 100.162C555.82 99.9941 555.905 99.8748 556.064 99.8839C556.22 99.8926 556.288 100.021 556.295 100.184C556.332 101.021 556.678 100.715 556.957 100.387C557.301 99.9815 557.612 99.5143 557.728 98.9651C557.812 98.567 557.799 98.1883 558.145 97.8977C561.386 95.1751 564.614 92.4327 567.849 89.7006C568.151 89.446 568.486 89.303 568.873 89.4535C569.893 89.8491 570.886 90.3313 571.972 90.4967C573.027 90.6578 573.665 91.7338 574.672 92.1046C576.461 92.7636 578.188 93.6414 579.945 94.4162C580.361 94.5998 580.627 94.7514 580.654 95.4132C580.685 96.1674 581.178 96.9473 581.91 96.8324C582.684 96.7119 582.651 95.9163 582.526 95.1348C582.429 94.5307 582.438 93.8448 582.595 93.2632C582.803 92.4916 583.478 92.4395 584.089 92.4671C584.645 92.4928 584.841 92.8537 584.893 93.4989C585.045 95.3986 585.076 95.395 586.664 94.5875C586.725 94.5567 586.784 94.5216 586.846 94.4975C587.458 94.2582 587.515 93.8732 587.111 93.3259C586.572 92.5966 586.249 91.7496 585.997 90.8391C585.742 89.9206 586.039 89.4645 586.752 89.0953C588.305 88.2898 589.88 87.9774 591.579 88.3992C593.359 88.8406 593.368 88.7917 593.182 90.8552C593.178 90.8995 593.262 90.9528 593.378 91.087C595.074 89.8274 597.05 89.2351 598.936 88.3893C600.473 87.7006 601.966 86.8864 603.481 86.1326C605.022 85.3658 605.159 85.0234 604.614 83.2442C604.166 81.7796 604.606 80.3399 605.816 79.667C606.743 79.1513 607.822 79.0424 608.648 79.7456C609.237 80.2475 608.8 81.3322 609.04 82.1306C609.12 82.3972 608.57 82.8122 608.895 83.1241C609.272 83.4878 609.605 82.961 609.962 82.8331C613.268 81.6509 615.922 79.0029 619.246 77.7515C622.679 76.4591 625.911 74.4864 629.249 72.8567C629.854 72.5618 629.902 72.127 629.994 71.4818C630.23 69.8174 628.56 68.3995 629.562 66.6751C629.573 66.6557 629.552 66.5985 629.533 66.572C628.736 65.5118 629.59 64.9799 630.145 64.527C632.249 62.8042 634.698 63.4616 637.038 63.3831C637.099 63.3807 637.163 63.4289 637.223 63.4608C637.61 63.6674 637.964 63.8589 637.539 64.4385C637.196 64.9065 637.266 65.4419 637.587 65.8889C637.974 66.4263 637.967 66.8757 637.505 67.3432C637.215 67.637 637.03 68.0954 637.253 68.4457C637.496 68.8267 637.856 68.463 638.138 68.3201C640.369 67.1856 642.586 66.0168 644.824 64.899C648.526 63.049 652.006 60.7521 655.362 58.2055C656.277 57.5102 657.162 57.2914 658.23 57.9074C660.702 59.3341 663.21 60.6845 665.725 62.0152C669.317 63.9185 672.843 65.9939 676.521 67.6855C676.978 67.8948 677.122 68.0682 676.768 68.651C676.315 69.4017 676.524 71.5256 677.026 71.9268C678.26 72.912 679.143 74.2913 680.236 75.4317C681.694 76.9496 919.526 105.591 915.96 131.545V208.837L684.539 206.532C684.244 206.543 683.945 206.563 683.646 206.563C669.221 206.576 654.793 206.591 640.367 206.596C618.263 206.603 596.159 206.606 574.055 206.607C538.417 206.608 502.78 206.607 467.142 206.606C435.078 206.605 403.015 206.601 370.951 206.6C354.34 206.6 337.729 206.609 321.118 206.603C317.148 206.601 58.6655 218.794 0 206.532Z" fill="#2C677B"/>
</svg>
